<svg width="74" height="69" viewBox="0 0 74 69" fill="none" xmlns="http://www.w3.org/2000/svg">
<circle cx="34.5" cy="34.5" r="34.5" fill="#2A2634"/>
<path d="M35.3033 56H19.1557V14.0328H35.1393C39.4563 14.0328 43.1858 14.873 46.3279 16.5533C49.4836 18.2199 51.9153 20.6243 53.6229 23.7664C55.3443 26.8948 56.2049 30.6448 56.2049 35.0164C56.2049 39.388 55.3511 43.1448 53.6434 46.2869C51.9358 49.4153 49.5177 51.8197 46.3893 53.5C43.2609 55.1667 39.5656 56 35.3033 56ZM30.5492 46.3279H34.8934C36.9699 46.3279 38.7391 45.9932 40.2008 45.3238C41.6762 44.6544 42.7964 43.5 43.5615 41.8607C44.3402 40.2213 44.7295 37.9399 44.7295 35.0164C44.7295 32.0929 44.3333 29.8115 43.541 28.1721C42.7623 26.5328 41.6147 25.3784 40.0983 24.709C38.5956 24.0396 36.7514 23.7049 34.5656 23.7049H30.5492V46.3279Z" fill="url(#paint0_linear_731_1844)"/>
<defs>
<linearGradient id="paint0_linear_731_1844" x1="29.5347" y1="32.1429" x2="41.7712" y2="32.1112" gradientUnits="userSpaceOnUse">
<stop stop-color="#9572FC"/>
<stop offset="0.505208" stop-color="#43E7AD"/>
<stop offset="1" stop-color="#E1D55D"/>
</linearGradient>
</defs>
</svg>
