<svg width="23" height="18" viewBox="0 0 23 18" fill="none" xmlns="http://www.w3.org/2000/svg">
<path d="M4.986 13.25C9.986 15.75 12.986 15.75 17.986 13.25" stroke="white" stroke-width="1.5" stroke-linecap="round" stroke-linejoin="round"/>
<path d="M14.986 14.75L15.986 16.75C15.986 16.75 20.157 15.422 21.486 13.25C21.486 12.25 22.016 5.103 18.486 2.75C16.986 1.75 14.486 1.25 14.486 1.25L13.486 3.25H11.486" stroke="white" stroke-width="1.5" stroke-linecap="round" stroke-linejoin="round"/>
<path d="M8.014 14.75L7.014 16.75C7.014 16.75 2.843 15.422 1.514 13.25C1.514 12.25 0.983999 5.103 4.514 2.75C6.014 1.75 8.514 1.25 8.514 1.25L9.514 3.25H11.514" stroke="white" stroke-width="1.5" stroke-linecap="round" stroke-linejoin="round"/>
<path d="M7.986 11.25C7.158 11.25 6.486 10.355 6.486 9.25C6.486 8.145 7.158 7.25 7.986 7.25C8.814 7.25 9.486 8.145 9.486 9.25C9.486 10.355 8.814 11.25 7.986 11.25ZM14.986 11.25C14.158 11.25 13.486 10.355 13.486 9.25C13.486 8.145 14.158 7.25 14.986 7.25C15.814 7.25 16.486 8.145 16.486 9.25C16.486 10.355 15.814 11.25 14.986 11.25Z" stroke="white" stroke-width="1.5" stroke-linecap="round" stroke-linejoin="round"/>
</svg>
